<svg xmlns="http://www.w3.org/2000/svg" width="15" height="15" viewBox="0 0 15 15">
    <path fill="#FFC05C" fill-rule="evenodd" d="M7.506 0c2.074 0 3.844.732 5.308 2.197 1.465 1.465 2.198 3.229 2.198 5.291 0 2.063-.733 3.826-2.198 5.291-1.464 1.465-3.234 2.198-5.308 2.198s-3.844-.733-5.309-2.198C.732 11.314 0 9.551 0 7.49c0-2.063.732-3.827 2.197-5.292C3.662.732 5.432 0 7.506 0zm0 13.5c1.652 0 3.064-.586 4.236-1.758 1.172-1.172 1.758-2.59 1.758-4.254 0-1.664-.586-3.082-1.758-4.254-1.172-1.172-2.584-1.757-4.236-1.757-1.652 0-3.065.585-4.236 1.757-1.172 1.172-1.758 2.59-1.758 4.254 0 1.664.586 3.082 1.758 4.254C4.44 12.914 5.854 13.5 7.506 13.5zm.369-9.773v3.937l3.375 2.004-.563.95L6.75 8.226v-4.5h1.125z"/>
</svg>
