<svg xmlns="http://www.w3.org/2000/svg" width="101" height="100" viewBox="0 0 101 100">
    <g fill="none" fill-rule="nonzero">
        <path fill="#FFC05C" d="M94.78 93.373H77.107V74.096H94.78zM62.794 45.038l-5.928 5.927c.631 1.743.965 3.572.965 5.46 0 8.859-7.206 16.065-16.064 16.065s-16.064-7.206-16.064-16.064S32.909 40.36 41.767 40.36c4.194 0 8.156 1.604 11.166 4.516l.16.223 5.697-5.698-.16-.188a23.95 23.95 0 0 0-16.863-6.885c-13.287 0-24.096 10.81-24.096 24.097 0 13.286 10.81 24.096 24.096 24.096 13.287 0 24.096-10.81 24.096-24.096 0-3.613-.78-7.088-2.32-10.328l-.75-1.06z"/>
        <path fill="#000" d="M100.591 69.277L93.173 54.44V26.845l-6.426-6.426V5.95a4.798 4.798 0 0 0-3.03-4.476 17.727 17.727 0 0 0-13.219 0A4.797 4.797 0 0 0 67.47 5.95v14.47l-4.82 4.82-4.819-4.82V5.95a4.798 4.798 0 0 0-3.03-4.476 17.727 17.727 0 0 0-13.219 0 4.797 4.797 0 0 0-3.028 4.476v14.47l-6.425 6.426v7.51a23.845 23.845 0 0 1 3.212-1.13v-4.109h25.703v5.761l-7.977 7.978a17.543 17.543 0 0 0-11.3-4.1c-9.743 0-17.67 7.928-17.67 17.67 0 9.744 7.927 17.671 17.67 17.671 9.743 0 17.67-7.927 17.67-17.67 0-1.713-.251-3.401-.733-5.027l9.43-9.431-3.877-3.878v-8.974H89.96v24.097H65.629a24.22 24.22 0 0 1 .234 3.213c0 3.025-.584 5.91-1.606 8.58v31.58H32.129v-18.09a24.138 24.138 0 0 1-5.175-3.103l-5.267 5.267-2.548-2.548 5.149-5.148a24.203 24.203 0 0 1-2.057-2.487l-5.364 5.364-2.41-2.41-11.99 11.99A8.36 8.36 0 0 0 0 91.379C0 96.021 3.778 99.8 8.422 99.8a8.373 8.373 0 0 0 5.956-2.466l11.99-11.992-2.41-2.41 4.958-4.957V99.8h67.47V69.277h4.205zM56.225 56.426c0 7.972-6.487 14.458-14.458 14.458S27.31 64.398 27.31 56.426c0-7.971 6.487-14.458 14.458-14.458 3.316 0 6.47 1.115 9.023 3.163l-9.023 9.023-4.82-4.82-7.09 7.092 11.91 11.91 14.257-14.257c.127.772.2 1.555.2 2.347zm-14.458 7.367L34.4 56.426l2.548-2.548 4.82 4.82L61.043 39.42l2.548 2.548-21.825 21.825zM12.106 95.06a5.177 5.177 0 0 1-3.684 1.526 5.215 5.215 0 0 1-5.21-5.208c0-1.392.542-2.7 1.527-3.683l9.719-9.72 7.367 7.366-9.719 9.72zM41.767 9.84h12.851v9.638h-12.85V9.839zM55.56 22.69l3.213 3.214h-21.16l3.213-3.213H55.56zM70.683 9.84h12.851v9.638H70.683V9.839zm13.793 12.85l3.212 3.214h-21.16l3.213-3.213h14.735zM71.693 4.457a14.512 14.512 0 0 1 10.83 0c.614.246 1.011.832 1.011 1.493v.678H70.683v-.678c0-.66.397-1.247 1.01-1.493zm-28.915 0a14.512 14.512 0 0 1 10.83 0c.614.246 1.01.832 1.01 1.493v.678h-12.85v-.678c0-.66.396-1.247 1.01-1.493zm47.795 51.97l4.82 9.638H73.282l-4.82-9.638h22.111zm2.6 40.16H67.47V61.624l3.826 7.653h21.877v27.31z"/>
        <path fill="#000" d="M48.193 90.16h12.851v3.213H48.193zM57.831 83.735h3.213v3.213h-3.213zM41.767 90.16h3.213v3.213h-3.213zM44.98 13.052h6.426v3.213H44.98zM73.896 13.052h6.425v3.213h-6.425z"/>
    </g>
</svg>
