<svg xmlns="http://www.w3.org/2000/svg" width="100" height="81" viewBox="0 0 100 81">
    <g fill="none" fill-rule="nonzero">
        <g fill="#F0BC5E">
            <path d="M20.968 41.935C9.407 41.935 0 32.53 0 20.968 0 9.407 9.407 0 20.968 0s20.967 9.407 20.967 20.968-9.406 20.967-20.967 20.967zM90.6 30.577l-6.843-6.842a3.232 3.232 0 0 0-4.562 0L67.79 35.14a3.229 3.229 0 0 0 0 4.562l.62.62h7.396a3.225 3.225 0 0 1 3.226 3.226v1.578l1.14.44L90.6 35.14a3.23 3.23 0 0 0 0-4.563zM70.968 74.194h-16.13a3.229 3.229 0 0 1-3.225-3.226V61.29a3.229 3.229 0 0 1 3.226-3.225h16.129a3.229 3.229 0 0 1 3.226 3.225v9.678a3.229 3.229 0 0 1-3.226 3.226z"/>
        </g>
        <path fill="#000" d="M19.355 35.484h3.226v-3.455c2.776-.72 4.838-3.224 4.838-6.223a6.458 6.458 0 0 0-6.451-6.451 3.229 3.229 0 0 1-3.226-3.226 3.229 3.229 0 0 1 3.226-3.226 3.229 3.229 0 0 1 3.226 3.226h3.225c0-2.998-2.062-5.502-4.838-6.222V6.452h-3.226v3.455c-2.776.72-4.839 3.224-4.839 6.222a6.458 6.458 0 0 0 6.452 6.452 3.229 3.229 0 0 1 3.226 3.225 3.229 3.229 0 0 1-3.226 3.226 3.229 3.229 0 0 1-3.226-3.226h-3.226c0 2.999 2.063 5.502 4.839 6.223v3.455zM32.258 19.355h3.226v3.226h-3.226zM6.452 19.355h3.225v3.226H6.452zM25.806 70.968h3.226v3.226h-3.226zM32.258 70.968h3.226v3.226h-3.226zM38.71 70.968h3.225v3.226H38.71zM45.161 70.968h3.226v3.226h-3.226zM25.806 64.516h22.581v3.226h-22.58zM51.613 67.742h6.452v6.452h3.225v-9.678h-9.677zM67.742 58.065h-3.226v9.677h9.678v-3.226h-6.452z"/>
        <path fill="#000" d="M98.582 29.437l-22.81-22.81c-1.827-1.825-5.024-1.82-6.835-.008L36.426 38.71H24.194a4.845 4.845 0 0 0-4.84 4.84v32.257a4.845 4.845 0 0 0 4.84 4.84h51.612a4.845 4.845 0 0 0 4.84-4.84V54.218l17.936-17.937A4.812 4.812 0 0 0 100 32.858a4.81 4.81 0 0 0-1.418-3.42zM76.916 12.332l2.278 2.278-24.099 24.1h-4.437l26.258-26.378zM24.194 41.935h13.554L71.21 8.908a1.613 1.613 0 0 1 2.282 0l1.142 1.144-31.737 31.883h32.91c.89 0 1.612.723 1.612 1.613v1.613H22.581v-1.613c0-.89.723-1.613 1.613-1.613zm53.225 6.452v3.226H22.581v-3.226h54.838zM75.806 77.42H24.194c-.89 0-1.613-.723-1.613-1.613V54.84h54.838v20.967c0 .89-.723 1.613-1.613 1.613zM96.302 34L80.645 49.657v-6.109a4.845 4.845 0 0 0-4.839-4.838h-16.15l21.818-21.818L96.3 31.718c.63.63.63 1.651.002 2.282z"/>
    </g>
</svg>
