<svg xmlns="http://www.w3.org/2000/svg" width="50" height="47" viewBox="0 0 50 47">
    <g fill="none" fill-rule="nonzero">
        <path fill="#FFC05C" d="M13.52 16H5.5v22H44V16h-8.02v6.519l-12.834 4.888-9.625-4.888z"/>
        <path fill="#333" d="M48.387 40.08V15.202c0-1.77-1.447-3.21-3.226-3.21h-3.934c-.02-.071-.036-.144-.058-.216l-.695.216h-3.377v-1.298L26.66 5.5l-13.757 5.134v1.358H9.186l-.384-.117c-.012.039-.019.078-.031.117H4.839a3.221 3.221 0 0 0-3.226 3.21V40.08H0v3.21c0 1.77 1.447 3.21 3.226 3.21h43.548A3.221 3.221 0 0 0 50 43.29v-3.21h-1.613zM27.42 17.113v-1.756l8.065-3.01v8.779l-8.065-4.013zm-3.225-.552l1.612-.602v1.095l-1.612.602V16.56zm3.225-2.918V7.674l6.856 3.41-6.856 2.559zm-1.613.602l-2.372.885-7.709-3.835 10.081-3.762v6.712zm-3.225 2.257v1.755l-8.065 3.01v-8.779l8.065 4.014zm0 3.47v5.969l-6.856-3.411 6.856-2.558zm1.613-.602l2.372-.885 7.709 3.835-10.081 3.762V19.37zM3.226 15.202a1.61 1.61 0 0 1 1.613-1.605h3.544c-.048.245-.1.489-.137.735l1.596.233c.048-.324.111-.647.18-.968h2.881v9.324l10.437 5.194 13.757-5.134v-9.384h2.878c.063.292.124.583.17.877l1.594-.245c-.033-.211-.082-.421-.122-.632h3.544c.89 0 1.613.72 1.613 1.605V40.08H27.42v1.605h-4.838V40.08H3.226V15.202zM48.387 43.29a1.61 1.61 0 0 1-1.613 1.605H3.226a1.61 1.61 0 0 1-1.613-1.605v-1.605h19.355a1.61 1.61 0 0 0 1.613 1.605h4.838c.89 0 1.613-.72 1.613-1.605h19.355v1.605z"/>
        <path fill="#333" d="M9.806 17L8 17.003c.002.838.074 1.677.215 2.497L10 19.26A13.58 13.58 0 0 1 9.806 17zM12.5 8.44l-1.285-.94c-.456.724-.865 1.49-1.215 2.276l1.4.724c.317-.711.687-1.405 1.1-2.06zM15.5 4.84L14.44 3.5a18.018 18.018 0 0 0-1.94 1.836L13.743 6.5A16.328 16.328 0 0 1 15.5 4.84zM40 9.766A17.99 17.99 0 0 0 38.777 7.5l-1.277.95c.415.65.788 1.34 1.109 2.05L40 9.766zM33.5 2.096A17.753 17.753 0 0 0 31.111 1L30.5 2.508c.742.277 1.468.61 2.16.992l.84-1.404zM28.5.377A14.949 14.949 0 0 0 26.108 0L26 1.659c.728.056 1.457.17 2.165.341L28.5.377zM23.5 1.647L23.383 0c-.8.066-1.6.197-2.383.39L21.344 2a13.595 13.595 0 0 1 2.156-.353zM19.5 2.5L18.88 1c-.821.31-1.62.683-2.38 1.105l.85 1.395a16.281 16.281 0 0 1 2.15-1zM37.5 5.327A17.908 17.908 0 0 0 35.55 3.5L34.5 4.845c.627.506 1.22 1.062 1.764 1.655L37.5 5.327zM41 22.004l-1.62-.504c-.236.77-.532 1.53-.88 2.26l1.528.74A18.17 18.17 0 0 0 41 22.004zM39 26.445l-1.448-.945c-.466.653-.988 1.28-1.552 1.86l1.286 1.14A17.837 17.837 0 0 0 39 26.445zM35.5 30.172L34.456 29c-.616.443-1.274.848-1.956 1.202l.837 1.298c.753-.392 1.48-.84 2.163-1.328zM26.5 33.956l-.118-1.456a16.756 16.756 0 0 1-2.266.002L24 33.958c.415.028.833.047 1.26.04.418 0 .83-.015 1.24-.042zM31.5 32.835l-.638-1.335c-.764.248-1.558.45-2.362.602l.39 1.398a21.268 21.268 0 0 0 2.61-.665zM11 26.448c.516.72 1.094 1.41 1.719 2.052L14 27.358a16.024 16.024 0 0 1-1.554-1.858L11 26.448zM18.5 32.837a21 21 0 0 0 2.617.663l.383-1.402c-.805-.15-1.6-.35-2.364-.598l-.636 1.337zM14.5 30.174c.682.488 1.41.934 2.165 1.326l.835-1.3a16.189 16.189 0 0 1-1.96-1.2l-1.04 1.174zM10.617 21.5L9 22.008c.262.85.59 1.689.975 2.492l1.525-.744a16.243 16.243 0 0 1-.883-2.256zM42 17.064V17l-1.81.064c0 .739-.063 1.481-.19 2.205l1.791.231c.138-.8.209-1.62.209-2.436z"/>
    </g>
</svg>
