<svg xmlns="http://www.w3.org/2000/svg" width="100" height="100" viewBox="0 0 100 100">
    <g fill="none" fill-rule="nonzero">
        <path fill="#FFC05C" d="M8.032 56.225h38.554v9.638H8.032zM93.173 93.173H51.406v-22.49h41.767z"/>
        <path fill="#000" d="M25.733 84.948l1.61-8.138 3.151.623-1.609 8.138zM93.173 80.321h-9.639v-9.638h-3.213v9.638h-6.425v-9.638h-3.213v9.638h-6.426v-9.638h-3.213v9.638h-9.638v3.213h9.638v9.639h3.213v-9.639h6.426v9.639h3.213v-9.639h6.425v9.639h3.213v-9.639h9.639z"/>
        <path fill="#FFC05C" d="M77.108 57.831H67.47V49.8h9.638zM53.012 36.948h38.554v6.425H53.012z"/>
        <path fill="#000" d="M81.928 20.884V12.85h12.851a4.825 4.825 0 0 0 4.82-4.819V0H0v8.032a4.825 4.825 0 0 0 4.82 4.82h5.267L13.3 22.49h2.764v20.349L6.426 55.69v8.567H0v35.341h99.598V64.257H83.534V48.193h-22.49v16.064H48.193V55.69l-9.639-12.851V22.49h2.765l3.213-9.639H62.65V26.57L51.406 36.21v8.77h41.767v-8.77L81.928 26.57v-5.686zM64.257 51.406h16.064v12.851H64.257V51.406zM96.386 67.47v28.916H3.213V67.47h93.173zM44.98 56.76v7.497H9.639V56.76l8.835-11.78h17.67l8.836 11.78zM35.34 28.916v6.425H19.277v-6.425h16.064zm-16.064-3.213V22.49h16.064v3.213H19.277zm16.064 12.851v3.213H19.277v-3.213h16.064zm3.661-19.277H15.616l-2.141-6.426h27.67l-2.143 6.426zm50.958 18.41v4.08H54.618v-4.08l10.233-8.771h14.876l10.233 8.77zM78.715 22.49v3.213H65.863V22.49h12.852zm-12.852-3.213v-6.426h12.852v6.426H65.863zM4.82 9.64a1.61 1.61 0 0 1-1.606-1.607v-4.82h93.173v4.82a1.61 1.61 0 0 1-1.607 1.607H4.82z"/>
        <path fill="#000" d="M44.98 70.683h3.213v3.213H44.98zM44.98 77.108h3.213v3.213H44.98zM44.98 83.534h3.213v3.213H44.98zM44.98 89.96h3.213v3.213H44.98z"/>
        <path fill="#FFC05C" d="M38.957 91.566l-.724-.965c-3.372-4.49-8.525-7.067-14.137-7.067-5.61 0-10.763 2.577-14.136 7.067l-.725.965h29.722z"/>
        <path fill="#000" d="M41.767 93.173H6.426v-22.49h35.341v22.49zM9.64 89.96h28.915V73.896H9.64V89.96z"/>
    </g>
</svg>
