<svg xmlns="http://www.w3.org/2000/svg" width="120" height="44" viewBox="0 0 120 44">
    <g fill="#FFF" fill-rule="evenodd">
        <path d="M21.815 1.829H3.117A3.117 3.117 0 0 0 0 4.945v18.699a3.116 3.116 0 0 0 3.117 3.116h3.116V8.062H9.35V26.76h6.233V8.062H18.7V26.76h3.116a3.116 3.116 0 0 0 3.117-3.116V4.945a3.117 3.117 0 0 0-3.117-3.116M69.547 14.295h12.466V8.062H69.547v6.233zM85.129 1.829H66.43a3.117 3.117 0 0 0-3.116 3.116v18.699a3.116 3.116 0 0 0 3.116 3.116h3.117v-6.232H88.246V4.945a3.117 3.117 0 0 0-3.117-3.116zM116.754 8.062h3.116V4.946a3.117 3.117 0 0 0-3.116-3.117H98.055a3.117 3.117 0 0 0-3.116 3.117V17.41H113.638v3.117H94.939v3.116a3.117 3.117 0 0 0 3.116 3.116h18.699a3.117 3.117 0 0 0 3.116-3.116V11.178h-18.698V8.062h15.582zM39.786 36.29h8.012c.445 0 .805-.36.805-.804v-.811h-9.622v.81c0 .445.36.805.805.805M47.695 37.906h-7.723a.973.973 0 0 0-.972.973 4.84 4.84 0 0 0 4.834 4.834 4.84 4.84 0 0 0 4.834-4.834.973.973 0 0 0-.973-.973M50.392 10.916l-6.627-3.835-6.634 3.823 6.628 3.835z"/>
        <path d="M44.556 5.655l7.88 4.554.006.006c.006 0 .018.006.024.012.012.005.024.018.035.023.007 0 .013.007.018.013.018.012.03.03.049.042l.066.065c.012.018.03.037.041.054.006.006.006.013.012.018.012.018.024.042.037.06.011.024.017.042.03.066 0 .006.005.013.005.018.006.024.018.042.024.066 0 .006.006.012.006.018.006.012.006.03.012.048 0 .006.006.018.006.024.006.018.012.036.012.06v.024c.006.018.006.03.006.048v.036l-.006 9.06 3.39 1.96a14.464 14.464 0 0 0 2.09-7.483C58.3 6.714 52.2.377 44.556 0v5.655zM36.322 19.964L42.95 23.8l.006-7.659-6.628-3.835z"/>
        <path d="M52.016 21.39l-7.85 4.525c0 .006-.006.006-.006.006-.03.012-.06.03-.09.042h-.006a.354.354 0 0 1-.083.03c-.006 0-.019.006-.024.006-.024.005-.049.005-.072.012-.006.005-.018.005-.024.005-.03.007-.066.007-.096.007s-.066 0-.096-.007c-.006-.005-.018-.005-.024-.005-.024 0-.048-.007-.072-.012-.006 0-.018-.006-.024-.006-.03-.012-.054-.018-.084-.03h-.006a.572.572 0 0 1-.09-.042c0-.006-.006-.006-.006-.006l-7.784-4.5-3.208 1.85a14.468 14.468 0 0 0 3.925 3.53l.463 3.414c.219 1.617 1.556 2.834 3.113 2.834h7.924c1.556 0 2.894-1.217 3.113-2.834l.463-3.414a14.466 14.466 0 0 0 3.912-3.515l-3.268-1.89z"/>
        <path d="M51.201 12.312l-6.627 3.823-.006 7.659 6.633-3.824zM34.722 20.042l.006-9.126v-.036c.006-.018.006-.03.006-.048v-.024c.006-.024.006-.048.012-.066 0-.006.007-.018.007-.024 0-.012.005-.03.011-.048 0-.006.006-.012.006-.018.007-.024.012-.048.024-.066 0-.006.006-.012.006-.018a.66.66 0 0 1 .072-.126c.006-.006.006-.011.012-.018.012-.017.03-.036.042-.054l.012-.012.036-.036.018-.017a.267.267 0 0 1 .048-.043c.006 0 .012-.005.018-.011.012-.007.024-.018.036-.024a.046.046 0 0 0 .024-.012l.006-.006 7.814-4.506V.009c-7.561.465-13.57 6.763-13.57 14.438 0 2.679.747 5.257 2.09 7.48l3.264-1.885z"/>
    </g>
</svg>
