<svg xmlns="http://www.w3.org/2000/svg" width="100" height="100" viewBox="0 0 100 100">
    <g fill="none" fill-rule="nonzero">
        <g fill="#FFC05C">
            <path d="M48.193 38.554c-1.923 0-3.575 1.14-4.347 2.773a12.778 12.778 0 0 1 1.134 5.26c0 1.876-.411 3.652-1.134 5.259.772 1.632 2.424 2.772 4.347 2.772a4.825 4.825 0 0 0 4.819-4.819v-6.426a4.825 4.825 0 0 0-4.82-4.819zM19.277 46.586c0-1.876.411-3.653 1.134-5.26-.772-1.631-2.424-2.772-4.347-2.772a4.825 4.825 0 0 0-4.819 4.82v6.425a4.825 4.825 0 0 0 4.82 4.82c1.922 0 3.574-1.141 4.346-2.773a12.778 12.778 0 0 1-1.134-5.26zM71.348 73.896a3.882 3.882 0 0 1-3.878-3.878V67.47h-1.607a4.825 4.825 0 0 1-4.819-4.82V43.374a4.825 4.825 0 0 1 4.82-4.819h28.915a4.825 4.825 0 0 1 4.82 4.82V62.65a4.825 4.825 0 0 1-4.82 4.819h-15.4l-5.289 5.29a3.9 3.9 0 0 1-2.742 1.136z"/>
        </g>
        <path fill="#000" d="M17.737 38.87c.655-7.37 6.856-13.167 14.392-13.167 7.535 0 13.736 5.797 14.391 13.166a4.737 4.737 0 0 1 1.673-.315c.541 0 1.052.11 1.539.275-.685-9.121-8.309-16.339-17.603-16.339-9.295 0-16.92 7.218-17.604 16.339a4.755 4.755 0 0 1 1.54-.275c.59 0 1.15.12 1.672.315z"/>
        <path fill="#000" d="M50.586 63.704c.095-.085.161-.157.272-.255.858-.75 2.154-1.886 2.154-4.02 0-2.136-1.298-3.27-2.156-4.02-.559-.489-.843-.774-.968-1.113-.53.199-1.098.322-1.695.322a4.727 4.727 0 0 1-1.566-.274c.197 1.788 1.333 2.8 2.114 3.484.8.699 1.058.977 1.058 1.6 0 .627-.258.905-1.057 1.605-.299.262-.628.56-.938.908a31.892 31.892 0 0 0-7.976-3.14c4.053-2.563 6.758-7.074 6.758-12.215 0-7.97-6.485-14.457-14.457-14.457-7.973 0-14.458 6.486-14.458 14.457 0 5.14 2.705 9.652 6.76 12.217a31.868 31.868 0 0 0-7.976 3.14c-.312-.348-.64-.647-.939-.908-.8-.702-1.058-.98-1.058-1.607 0-.623.258-.901 1.057-1.6.782-.684 1.918-1.696 2.114-3.484a4.71 4.71 0 0 1-1.565.274 4.801 4.801 0 0 1-1.695-.322c-.126.339-.41.624-.968 1.114-.858.749-2.156 1.885-2.156 4.018 0 2.135 1.296 3.27 2.154 4.023.113.098.179.168.272.253C5.417 69.526 0 79.114 0 89.96v1.606c0 4.43 3.603 8.032 8.032 8.032h48.193c4.429 0 8.032-3.603 8.032-8.032V89.96c0-10.845-5.417-20.434-13.67-26.256zm-8.613-.898a4.794 4.794 0 0 1-3.419 1.451c-2.056 0-3.8-1.3-4.493-3.115 2.763.185 5.414.755 7.912 1.664zm-9.844-27.465c3.836 0 7.227 1.935 9.257 4.876L35.07 38.41l-.619.411a17.455 17.455 0 0 1-9.72 2.945h-2.745c1.808-3.793 5.669-6.426 10.143-6.426zM20.884 46.586c0-.546.053-1.08.128-1.606h3.719c3.855 0 7.597-1.062 10.867-3.076l7.475 2.135c.19.82.3 1.67.3 2.547 0 6.201-5.045 11.245-11.244 11.245-6.2 0-11.245-5.044-11.245-11.245zm9.312 14.556c-.692 1.815-2.437 3.115-4.493 3.115a4.794 4.794 0 0 1-3.419-1.45 28.617 28.617 0 0 1 7.912-1.665zM48.193 89.96H16.064V78.715a4.825 4.825 0 0 1 4.82-4.82h22.49a4.825 4.825 0 0 1 4.819 4.82V89.96zm-3.213 6.426H17.67a4.829 4.829 0 0 1-4.545-3.213h38.005a4.829 4.829 0 0 1-4.545 3.213H44.98zm16.064-4.82a4.825 4.825 0 0 1-4.82 4.82H52.97c1.02-1.347 1.648-3.004 1.648-4.82V89.96h-3.212V78.715c0-4.43-3.604-8.032-8.033-8.032h-22.49c-4.428 0-8.032 3.603-8.032 8.032V89.96H9.64v1.606c0 1.816.628 3.473 1.648 4.82H8.032a4.825 4.825 0 0 1-4.82-4.82V89.96c0-11.3 6.533-21.08 16.004-25.835 1.49 2.065 3.884 3.345 6.487 3.345 2.636 0 4.96-1.295 6.426-3.263 1.465 1.968 3.79 3.263 6.425 3.263 2.603 0 4.996-1.28 6.487-3.345C54.512 68.88 61.044 78.66 61.044 89.96v1.606zM61.044 0v28.916h12.852v2.547a3.882 3.882 0 0 0 3.877 3.878 3.9 3.9 0 0 0 2.743-1.135l5.29-5.29h13.792V0H61.044zm25.812 15.014l9.53-9.53v18.193l-9.53-8.663zm-13.07.001l-9.529 8.662V5.484l9.53 9.531zM66.53 3.213h27.585L81.928 15.398c-.86.859-2.354.859-3.213 0L66.529 3.213zm17.947 22.49l-6.233 6.231c-.378.38-1.135.07-1.135-.47v-5.761H66.806l9.255-8.415.382.383a5.453 5.453 0 0 0 3.878 1.606 5.45 5.45 0 0 0 3.878-1.606l.383-.383 9.254 8.415h-9.36zM72.29 44.98a4.825 4.825 0 0 0-4.82 4.82v1.606h3.213v-1.607c0-.885.72-1.606 1.606-1.606.887 0 1.607.721 1.607 1.606v.275a1.6 1.6 0 0 1-.471 1.137l-5.955 5.955v3.878h9.638v-3.213h-5.76l4.348-4.348a4.785 4.785 0 0 0 1.412-3.41V49.8a4.825 4.825 0 0 0-4.819-4.82zM89.96 44.98h-4.122l-5.517 9.193v3.658h6.426v3.213h3.213v-3.213h3.213v-3.213H89.96V44.98zm-3.213 9.638h-2.946l2.946-4.909v4.91z"/>
    </g>
</svg>
