<svg xmlns="http://www.w3.org/2000/svg" width="100" height="100" viewBox="0 0 100 100">
    <g fill="none" fill-rule="nonzero">
        <g fill="#FFC05C">
            <path d="M35.341 38.554h-9.638v-8.032h9.638zM35.341 65.863h-9.638v-8.032h9.638zM77.108 73.896H67.47v-8.033h9.638zM97.992 97.992H86.747V69.076h11.245z"/>
        </g>
        <path fill="#000" d="M83.534 67.47v-3.213h-22.49v3.213h-9.638a3.216 3.216 0 0 1-3.213-3.213V44.98h9.638V11.245h-3.213v30.522h-6.425V22.49H12.85v19.277H6.426V11.245H3.213V44.98h9.638v27.31c0 15.058 12.251 27.308 27.31 27.308h59.437V67.47H83.534zm-19.277 0h16.064v16.064H64.257V67.47zm0 19.277v9.639h-23.23L52.45 70.683h8.594v16.064h3.213zM16.064 25.703H44.98v16.064h-3.213V28.916h-22.49v12.851h-3.213V25.703zm22.49 6.426v14.457H22.49V32.13h16.064zm-19.277 12.85v4.82h22.49v-4.82h3.213v14.812l-3.213.803v-4.37h-22.49v9.993l-3.213.803V44.98h3.213zm19.277 14.459v16.064H22.49V59.438h16.064zm-22.49 12.851v-1.96l3.213-.803v9.189h22.49V63.904l3.213-.804v1.157c0 2.739 1.73 5.065 4.148 5.989L37.574 96.24c-12.075-1.295-21.51-11.539-21.51-23.952zm80.322 24.097H67.47v-9.639h16.064V70.683h12.852v25.703z"/>
        <path fill="#000" d="M12.851 16.064h3.213v3.213h-3.213zM19.277 16.064h3.213v3.213h-3.213zM25.703 16.064h3.213v3.213h-3.213z"/>
        <path fill="#FFC05C" d="M61.044 12.851H0V0h61.044z"/>
    </g>
</svg>
