<svg xmlns="http://www.w3.org/2000/svg" width="11" height="15" viewBox="0 0 11 15">
    <path fill="#FFC05C" fill-rule="evenodd" d="M5.238 0c1.453 0 2.696.51 3.727 1.53 1.031 1.019 1.547 2.255 1.547 3.708 0 .727-.182 1.565-.545 2.514a14.58 14.58 0 0 1-1.319 2.637 48.287 48.287 0 0 1-1.546 2.285c-.516.715-.95 1.283-1.301 1.705l-.563.598a10.01 10.01 0 0 1-.562-.633c-.235-.282-.65-.826-1.248-1.635a33.636 33.636 0 0 1-1.6-2.355A16.072 16.072 0 0 1 .562 7.77C.188 6.809 0 5.965 0 5.238c0-1.453.51-2.69 1.53-3.709C2.548.51 3.784 0 5.237 0zm0 7.102c.516 0 .961-.182 1.336-.545.375-.364.563-.803.563-1.319 0-.515-.188-.955-.563-1.318a1.855 1.855 0 0 0-1.336-.545c-.515 0-.955.182-1.318.545a1.796 1.796 0 0 0-.545 1.318c0 .516.182.955.545 1.319.363.363.803.545 1.318.545z"/>
</svg>
