<svg xmlns="http://www.w3.org/2000/svg" width="100" height="100" viewBox="0 0 100 100">
    <g fill="none" fill-rule="nonzero">
        <circle cx="39.081" cy="46.397" r="20.798" fill="#F9BA48"/>
        <path fill="#333" d="M79.076 57.596c-3.337 0-6.482.81-9.278 2.212a33.205 33.205 0 0 0 2.815-13.411c0-7.244-2.327-13.943-6.242-19.435l2.09-2.09 2.828 2.829 6.786-6.786L64.501 7.34l-6.788 6.786 2.828 2.829-2.457 2.089c-4.043-2.883-7.804-4.878-14.203-5.739V9.6h4.8V.001H29.481v9.6h3.2v3.704c-4.8.858-9.396 2.842-13.432 5.71l-1.878-2.062 2.92-2.828-6.74-6.787L0 20.913l6.8 6.786 2.833-2.828 2.055 2.052c-3.932 5.502-6.27 12.213-6.27 19.473 0 15.5 10.723 28.99 25.664 32.614v.982h3.2v6.4h1.6v3.2h-3.2v9.598h41.595v-.58c1.544.366 3.146.58 4.8.58 11.467 0 20.798-9.33 20.798-20.797 0-11.468-9.331-20.797-20.799-20.797zM51.88 89.592v-3.2h3.2v3.2h-3.2zm-1.6-15.998v3.2h-3.2v-3.2h3.2zm3.2 3.2v-3.2h3.2v3.2h-3.2zm0 3.2v3.199h-3.2v-3.2h3.2zm3.2 3.199v-3.2h1.681c.084 1.093.253 2.16.501 3.2H56.68zm-1.6-12.799v-3.2h3.2v3.2h-3.2zm-3.2 0h-3.2v-3.2h3.2v3.2zm-6.4 0H42.28v-3.2h3.2v3.2zm-6.398 0h-3.2v-3.2h3.2v3.2zm4.8 3.2v3.2h-3.2v-3.2h3.2zm3.199 6.4v3.199h-3.2v-3.2h3.2zm1.6 6.398v3.2h-3.2v-3.2h3.2zm-3.2 6.4v3.2h-3.2v-3.2h3.2zm3.2 0h3.2v3.2h-3.2v-3.2zm6.399 0h3.2v3.2h-3.2v-3.2zm3.2-3.2v-3.2h1.604a20.775 20.775 0 0 0 1.696 3.2h-3.3zm3.2-22.397h.1c-.035.054-.067.11-.1.166v-.166zM64.5 11.862l9.05 9.05-2.262 2.263-9.05-9.05 2.262-2.263zm-1.696 7.353l3.394 3.394-1.82 1.82a34.004 34.004 0 0 0-3.394-3.395l1.82-1.819zM32.681 6.401V3.2H45.48v3.2H32.68zm3.2 6.399V9.6h4.8v3.2h-4.8zM4.547 20.913l9.05-9.05 2.262 2.262-9.05 9.05-2.262-2.262zM11.9 22.61l3.393-3.393 1.789 1.789a33.81 33.81 0 0 0-3.397 3.39L11.9 22.61zM8.62 46.397C8.62 29.635 22.255 16 39.016 16c16.761 0 30.397 13.635 30.397 30.397 0 6.35-1.972 12.413-5.68 17.598H32.682v6.4h-1.6v5.323C17.96 72.176 8.62 60.16 8.62 46.397zM34.28 73.594h3.2v3.2h-3.2v-3.2zm6.4 6.4v3.199h-3.2v-3.2h3.2zm-1.6 6.398h3.2v3.2h-3.2v-3.2zm-3.2 6.4h3.2v3.2h-3.2v-3.2zm25.597 3.2v-3.2h2.625a20.882 20.882 0 0 0 3.94 3.2h-6.565zm17.598 0c-9.703 0-17.598-7.896-17.598-17.599s7.895-17.598 17.598-17.598c9.704 0 17.599 7.895 17.599 17.598s-7.896 17.598-17.599 17.598z"/>
        <path fill="#333" d="M83.076 65.595h-2.4v-3.2h-3.2v3.2h-2.4c-3.968 0-7.199 3.23-7.199 7.199 0 3.97 3.23 7.2 7.2 7.2h8c2.204 0 3.999 1.793 3.999 3.999 0 2.206-1.795 4-4 4h-8c-2.204 0-3.999-1.794-3.999-4v-.8h-3.2v.8c0 3.97 3.23 7.2 7.2 7.2h2.4v3.199h3.2v-3.2h2.399c3.97 0 7.2-3.23 7.2-7.2 0-3.968-3.23-7.198-7.2-7.198h-8c-2.204 0-4-1.794-4-4s1.796-4 4-4h8c2.204 0 4 1.794 4 4v.8h3.2v-.8c0-3.97-3.23-7.2-7.2-7.2zM34.217 46.397c0 2.646 2.153 4.8 4.8 4.8 2.646 0 4.8-2.154 4.8-4.8s-2.154-4.8-4.8-4.8c-.69 0-1.343.152-1.934.414L25.815 29.336l-2.392 2.124 11.341 12.76a4.746 4.746 0 0 0-.547 2.177zm6.4 0c0 .883-.719 1.6-1.6 1.6-.882 0-1.6-.717-1.6-1.6 0-.884.718-1.6 1.6-1.6.881 0 1.6.716 1.6 1.6z"/>
    </g>
</svg>
